<svg xmlns="http://www.w3.org/2000/svg" viewBox="0 0 48 48" role="img" aria-labelledby="yamaguchi-away-title yamaguchi-away-desc">
  <title id="yamaguchi-away-title">山口大学 FP副ユニフォーム</title>
  <desc id="yamaguchi-away-desc">首元まで黒い上半分と白い下半分、V字の境界、白いクルーネック線、中央にYUを配した簡略ユニフォーム</desc>
  <style>
    svg { --kit-primary: #f8f9f7; --kit-secondary: #242a31; --kit-accent: #dfe3e7; --kit-trim: #ffffff; --kit-text: #ffffff; --kit-text-stroke: #151b21; }
    .primary { fill: var(--kit-primary); } .secondary { fill: var(--kit-secondary); }
    .accent { fill: var(--kit-accent); } .trim { stroke: var(--kit-trim); }
    .label { fill: var(--kit-text); stroke: var(--kit-text-stroke); stroke-width: .5; paint-order: stroke; font: 800 7.4px Arial, sans-serif; letter-spacing: -.25px; text-anchor: middle; }
    .outline { fill: none; stroke: #07101b; stroke-width: 1.35; stroke-linejoin: round; }
  </style>
  <defs>
    <clipPath id="yamaguchi-away-body"><path d="M15 7 21 4h6l6 3v35H15Z"/></clipPath>
    <linearGradient id="yamaguchi-away-shade" x1="0" y1="0" x2="1" y2="1"><stop stop-color="#fff" stop-opacity=".12"/><stop offset=".55" stop-color="#fff" stop-opacity="0"/><stop offset="1" stop-color="#000" stop-opacity=".15"/></linearGradient>
  </defs>
  <path class="secondary" d="M15 7 5 13l5 9 5-3Zm18 0 10 6-5 9-5-3Z"/>
  <path class="primary" d="M15 7 21 4h6l6 3v35H15Z"/>
  <path class="secondary" d="M15 7 21 4h6l6 3v14l-9 6-9-6Z" clip-path="url(#yamaguchi-away-body)"/>
  <path d="M15 7 21 4h6l6 3v35H15Z" fill="url(#yamaguchi-away-shade)"/>
  <text class="label" x="24" y="29">YU</text>
  <path class="trim" d="M20.5 5.1C21.2 9 26.8 9 27.5 5.1" fill="none" stroke-width="1.35"/>
  <path class="outline" d="M15 7 21 4h6l6 3 10 6-5 9-5-3v23H15V19l-5 3-5-9Z"/>
</svg>
